PathFileType	4	(X/Y/Z)	Patient3_R_AnkleIso_Processed.trc
DataRate	CameraRate	NumFrames	NumMarkers	Units	OrigDataRate	OrigDataStartFrame	OrigNumFrames
100.000000000000	100.000000000000	4	33	mm	100.000000000000	113	       301
Frame#	Time	L.Toe			R.Toe			R.Shoulder			L.Heel			Neck			R.Heel			L.Shank.Lateral			R.Shank.Lateral			L.Midfoot.Superior			L.Elbow			R.Midfoot.Lateral			R.Midfoot.Superior			L.Shoulder			R.Thigh.Lateral			R.Elbow			Sacral			L.Thigh.Superior			R.Patella			R.Wrist			R.Shank.Superior			L.Wrist			R.Shank.Inferior			R.Thigh.Superior			R.Thigh.Inferior			L.Asis			L.Shank.Inferior			L.Midfoot.Lateral			Sternum			L.Shank.Superior			R.Asis			L.Patella			L.Thigh.Lateral			L.Thigh.Inferior			
		X1	Y1	Z1	X2	Y2	Z2	X3	Y3	Z3	X4	Y4	Z4	X5	Y5	Z5	X6	Y6	Z6	X7	Y7	Z7	X8	Y8	Z8	X9	Y9	Z9	X10	Y10	Z10	X11	Y11	Z11	X12	Y12	Z12	X13	Y13	Z13	X14	Y14	Z14	X15	Y15	Z15	X16	Y16	Z16	X17	Y17	Z17	X18	Y18	Z18	X19	Y19	Z19	X20	Y20	Z20	X21	Y21	Z21	X22	Y22	Z22	X23	Y23	Z23	X24	Y24	Z24	X25	Y25	Z25	X26	Y26	Z26	X27	Y27	Z27	X28	Y28	Z28	X29	Y29	Z29	X30	Y30	Z30	X31	Y31	Z31	X32	Y32	Z32	X33	Y33	Z33	

113	1.620000000000	705.604384664317	42.363194837703	376.681338767451	1091.746145778412	267.106001044303	499.280480241158	465.250286990897	1448.101366812637	512.573062611880	414.871551586543	33.129705633610	427.195797053079	434.840395213128	1467.664924608659	363.804969399275	881.775425415564	109.405558768846	638.936492382942	480.061534431317	325.406530413872	295.977723977453	772.843271545183	433.551888787134	665.662372542719	585.834522373799	89.749133314074	390.639653947521	372.480733769682	1115.691504976302	100.077008759726	979.200627557009	148.044992059986	640.105475920242	984.843957931507	243.511418492408	575.865896322731	481.520582446512	1429.579355361421	222.020682483568	646.712300344484	725.112173217024	622.633195202914	546.617956361314	1140.543101956016	659.600629062254	412.028811476788	971.528023982857	387.837722970500	658.008891342085	738.517970681304	303.928461044078	787.541392080883	604.507225203352	563.063076890687	645.101924690699	1267.642397662656	467.623993284568	819.759695628472	500.546769349017	596.706218799566	547.094092913712	1002.693658637576	-52.814826475977	888.373073489801	338.289115710691	609.485973140649	697.296658608689	799.450111851162	554.013947776241	740.624019548952	695.412400619234	553.587759973257	607.707148824877	968.061031916350	279.190706283615	549.244727834216	230.358493111878	366.315480273747	490.471288421059	27.316892680732	359.380122585544	574.485742167043	1375.475898540198	381.205394947009	572.234003509664	383.118183870580	334.875249571038	557.789450753676	995.253213121937	535.543661997110	614.869440306444	491.219703539151	346.837974164161	558.896215270619	657.634997307873	259.895059437849	638.948039666514	609.198698960469	324.529024648522	
114	1.630000000000	705.604838144375	42.363198366628	376.681398621564	1091.882687611995	269.458947187186	499.880538015755	464.942571469313	1448.102422253491	512.540000968027	414.872978602209	33.128566121651	427.197242616047	434.581646417776	1467.654878415870	363.755287171983	883.021306683440	109.312327933487	638.382712458947	480.027179368573	325.406375038792	295.983698642528	773.047942400847	433.691695269624	665.506739399542	585.847733625915	89.760683438421	390.621722515797	372.356927015901	1115.686910165699	99.993859321362	980.056557169284	148.923618261674	639.984534049941	985.006355219224	244.555631911041	575.928151632922	481.323245143742	1429.575160853317	221.994168361529	646.696585315214	725.222724352251	622.584521599882	546.319738840369	1140.574709541441	659.615046090532	411.859284513196	971.508806510032	387.833765109654	657.892078554442	738.549019357861	303.952169630090	787.574888464087	604.747914836033	562.975219624453	644.845282742865	1267.681671492628	467.665690403176	819.933817366296	500.795010271344	596.606651825171	546.974020650962	1002.641542312838	-52.860044357093	888.672992128507	338.610365855623	609.273390272741	697.225196451425	799.620587987420	553.981759107937	740.623947305263	695.620602971192	553.519878740923	607.545454837621	968.082661850828	279.209233205085	549.220856271569	230.363711211134	366.315220389579	490.470881939061	27.314058100843	359.380276225393	574.235960191921	1375.494142889041	381.214230884376	572.203259420604	383.149635494840	334.856827571563	557.594691471219	995.294813094399	535.546760199964	614.811164723201	491.237496269761	346.850207228935	558.799180211824	657.642449656281	259.912386513627	638.855922095842	609.221452673297	324.550992112616	
115	1.640000000000	705.605195805168	42.363148937375	376.681315025382	1092.029969980691	271.749448557589	500.530437369110	464.628404508252	1448.103759621394	512.499088947853	414.874320874350	33.127734756789	427.198375297476	434.318642373304	1467.644211967375	363.696214747296	884.227365513256	109.245602994343	637.840975889749	479.991859987733	325.405935643527	295.988797757159	773.231242826790	433.827940906309	665.361354711666	585.860740678609	89.772879308004	390.603111068916	372.231998769569	1115.678022945061	99.907131844846	980.879269655472	149.792658731358	639.895592580242	985.177119996681	245.577919643896	576.015493777664	481.123938072907	1429.569052510172	221.959874095122	646.669206648371	725.336879104506	622.539506411177	546.012227979445	1140.608531219385	659.626337156025	411.687257454780	971.489095355287	387.821668697557	657.775505738768	738.580277141436	303.973011181297	787.599510198810	604.989181938593	562.903724800989	644.582528033451	1267.720660206275	467.704198852320	820.092637973087	501.044251299354	596.527060380386	546.854572514844	1002.582030592070	-52.905001971498	888.962440900290	338.933693311270	609.082382184114	697.145772996606	799.791856568568	553.954362361821	740.614744881590	695.828887294198	553.462552107480	607.383356180010	968.103900246588	279.224542961970	549.196558754580	230.368867045923	366.312948180478	490.470323822180	27.310948533108	359.380522660750	573.981938605496	1375.512343252757	381.217597598146	572.170277832268	383.178112297654	334.838689629300	557.393939779219	995.338582275050	535.545090258778	614.752733063895	491.254993929253	346.859559961665	558.702700690393	657.649417452044	259.926838855318	638.764463747360	609.244802861872	324.569934924087	
116	1.650000000000	705.605450112672	42.363149653149	376.681104685143	1092.187685882426	273.983484950471	501.233594214323	464.308043764228	1448.105207418670	512.450682618991	414.875589015914	33.127192468550	427.199096002601	434.051260430344	1467.633095951738	363.628255480698	885.395398043943	109.201898831656	637.310004854119	479.954307603202	325.405364855023	295.992413118515	773.392928301748	433.960369877262	665.226078460341	585.873151063414	89.785140527597	390.584310648573	372.106020603054	1115.664407648931	99.818001212933	981.669823331195	150.653722515609	639.841639561007	985.353655899150	246.580059550674	576.129149570341	480.921883469086	1429.561391814726	221.918040634974	646.630133039715	725.454394028369	622.498010968150	545.696594880776	1140.644170388550	659.633932438195	411.512596833922	971.468872782640	387.801276241452	657.658709184636	738.611675296291	303.989698944783	787.614980435971	605.230549030565	562.848178137666	644.314093843629	1267.759463446358	467.738865094678	820.236041228366	501.293876245410	596.467143762146	546.736598875427	1002.516188373700	-52.948614149626	889.240309912794	339.258283062151	608.912739091128	697.058249660570	799.963439368039	553.931403652830	740.596201693341	696.036786206471	553.415317302142	607.220515304559	968.124682775691	279.236107880349	549.171327282215	230.373948970714	366.307928036901	490.469681417748	27.307591439066	359.380808828961	573.723623173678	1375.530700564239	381.215339894575	572.134086257828	383.203401706924	334.820149377608	557.187350231352	995.384586509649	535.538314261480	614.693577697955	491.272327124422	346.865073944608	558.605908296124	657.655991243800	259.937881533475	638.673076367174	609.268895326068	324.584539961496	
